<svg class="icon" viewBox="0 0 1024 1024" xmlns="http://www.w3.org/2000/svg" width="256" height="256"><defs><style/></defs><path d="M322.998 649.221l33.657-18.124 129.455 72.495V524.946L460.218 512l-129.453-75.084v147.578l-28.48 15.534-108.741-62.138-129.455 72.495v150.166l129.455 72.494 129.454-72.494zm396.129-49.193l-25.892-15.534V436.916l-155.345 88.03v178.646l129.455-72.495 33.657 18.124v111.33l129.454 72.494 129.455-72.494V610.385L830.456 537.89zm0-466.034v119.099l137.22 75.082v134.633l12.946 7.767 90.618 51.78V266.038zm-77.673 680.928L512 884.827l-129.454-69.905-20.712 12.946-85.44 46.603L512 1003.924l235.606-129.453-85.44-46.603zm-473.8-352.114V328.175l137.22-75.082V133.994L64.088 266.037v256.319l90.618-51.78zm189.001-69.905L512 480.93l25.89-15.534 129.455-72.494-129.455-72.495v-18.123l103.564-59.55V95.159L512 20.076 382.546 95.158v147.578l103.564 59.549v18.123z"/></svg>