<svg class="icon" viewBox="0 0 1024 1024" xmlns="http://www.w3.org/2000/svg" width="200" height="200"><defs><style/></defs><path d="M925.98 246.34c-.91-28.3-24.63-55.03-52.7-59.87 0 0-108.81-16.98-169.87-38.44-76.23-26.78-151.67-85.65-151.67-85.65-23.53-16.59-59.62-15.56-81.44 2.37 0 0-53.4 53.2-153.05 84.26-92.06 36.53-165.64 40.27-165.64 40.27-27.77 3.57-51.67 28.88-52.21 57.17 0 0-3.74 145.45.98 273.1 1.78 228.37 275.6 454.13 413.97 454.13 136.2 0 371.58-157.29 408.6-450.81 9.17-174.25 3.03-276.53 3.03-276.53zM713.53 446.69L478.1 681.96c-10.03 10.02-27.05 11.18-38.59 2.13l-122.94-96.46c-22.59-17.72-24.94-48.56-4.96-69.2 19.85-20.5 53.93-23.21 76.97-5.4l57.07 44.1 196.13-182.44c20.43-19 52.91-18.47 72.85.33-.28-.29-.36-.69-.66-.99l1.66 1.65c-.29-.29-.7-.38-1-.66 19.2 19.89 18.93 51.64-1.1 71.67z"/></svg>