<svg class="icon" viewBox="0 0 1024 1024" xmlns="http://www.w3.org/2000/svg" width="200" height="200"><defs><style/></defs><path d="M874.6 254.97v-51.34H669.25v-31.98c0-40.4-45.44-70.69-85.84-70.69H442.02c-40.4 0-80.81 30.29-80.81 70.69v31.98H155.86v51.34H874.6zm-256.69-51.33H412.55v-31.98c0-15.15 14.32-19.35 29.47-19.35h141.39c15.15 0 34.5 4.21 34.5 19.35v31.98zM207.19 306.31v494.86c0 65.66 49.18 121.21 109.81 121.21h396.44c60.63 0 109.81-55.55 109.81-121.21V306.31H207.19zm564.74 489.83c0 40.4-25.82 74.9-63.15 74.9H317.01c-37.32 0-58.48-34.5-58.48-74.9V357.65h102.68v513.39h102.68V357.65h102.68v513.39h102.68V357.65h102.68v438.49z"/></svg>