<svg class="icon" viewBox="0 0 1024 1024" xmlns="http://www.w3.org/2000/svg" width="200" height="200"><defs><style/></defs><path d="M512.49 351.1c112.48 0 203.76 91.29 203.76 203.76 0 26.49-5.3 51.35-14.67 74.58l119 119c61.54-51.35 110.03-117.77 139.78-193.57-70.5-178.9-244.51-305.64-448.28-305.64-57.05 0-111.66 10.19-162.19 28.53l88.02 88.02c23.23-9.38 48.09-14.68 74.58-14.68zM104.96 239.85l92.92 92.92 18.75 18.75C148.98 404.08 96 474.17 64.21 554.86c70.5 178.9 244.51 305.64 448.28 305.64 63.17 0 123.48-12.23 178.49-34.23l17.12 17.12 119.4 119 51.76-51.76-722.54-722.54-51.76 51.76zm225.36 225.36l63.17 63.17c-2.04 8.56-3.26 17.52-3.26 26.49 0 67.65 54.61 122.26 122.26 122.26 8.97 0 17.93-1.22 26.49-3.26l63.17 63.17c-27.3 13.45-57.46 21.6-89.65 21.6-112.48 0-203.76-91.29-203.76-203.76-.01-32.21 8.14-62.37 21.58-89.67zm175.65-31.79l128.37 128.37.82-6.52c0-67.65-54.61-122.26-122.26-122.26l-6.93.41z"/></svg>