<svg class="icon" viewBox="0 0 1024 1024" xmlns="http://www.w3.org/2000/svg" width="200" height="200"><defs><style/></defs><path d="M424.611 642.354a122.63 122.63 0 1 0 173.422-173.428 122.63 122.63 0 1 0-173.422 173.428z"/><path d="M512.08 249.22zm0 0c-337.15 0-447.87 305.64-447.87 305.64S177.82 860.5 512.49 860.5s447.87-305.64 447.87-305.64-111.13-305.64-448.28-305.64zm-.75 512.02c-113.55 0-205.6-92.05-205.6-205.6s92.05-205.6 205.6-205.6 205.6 92.05 205.6 205.6-92.05 205.6-205.6 205.6z"/></svg>