<svg class="icon" viewBox="0 0 1024 1024" xmlns="http://www.w3.org/2000/svg" width="200" height="200"><defs><style/></defs><path d="M840.1 366.08c-17.88-42.28-43.48-80.24-76.07-112.83-32.59-32.59-70.55-58.18-112.83-76.07-43.8-18.52-90.29-27.92-138.2-27.92-47.91 0-94.41 9.39-138.2 27.92-42.28 17.88-80.24 43.48-112.83 76.07-32.59 32.59-58.18 70.55-76.07 112.83-18.52 43.8-27.92 90.29-27.92 138.2 0 47.91 9.39 94.41 27.92 138.2 17.88 42.28 43.47 80.24 76.07 112.83s70.55 58.18 112.83 76.07c43.8 18.52 90.29 27.92 138.2 27.92 47.91 0 94.41-9.39 138.2-27.92 42.28-17.88 80.24-43.48 112.83-76.07 32.59-32.59 58.18-70.55 76.07-112.83 18.52-43.8 27.92-90.29 27.92-138.2 0-47.9-9.39-94.4-27.92-138.2zm-518.01-52.7c51-50.99 118.8-79.08 190.91-79.08 61.81 0 120.43 20.64 168.03 58.64L293.14 661.06c-32.55-45.45-50.13-99.76-50.13-156.78.01-72.11 28.09-139.91 79.08-190.9zm381.82 381.81c-50.99 50.99-118.79 79.08-190.91 79.08-58.45 0-114.06-18.45-160.19-52.59l385.67-366.01c28.95 43.73 44.5 94.97 44.5 148.62 0 72.11-28.08 139.91-79.07 190.9z"/></svg>