<svg class="icon" viewBox="0 0 1024 1024" xmlns="http://www.w3.org/2000/svg" width="200" height="200"><defs><style/></defs><path d="M511.72 960.56c-246.31 0-447.84-201.53-447.84-447.84S265.41 64.87 511.72 64.87 959.57 266.4 959.57 512.71 758.04 960.56 511.72 960.56zm88.87-671.19c-19.54-26.06-58.63-32.57-104.23-32.57s-84.68 13.03-110.74 39.08c-13.03 19.54-26.06 39.08-32.57 71.66-6.51 26.06 13.03 45.6 32.57 45.6 13.03 0 32.57-13.03 32.57-32.57s6.51-32.57 13.03-39.08c13.03-19.54 32.57-26.06 65.14-26.06 26.06 0 45.6 6.51 58.63 26.06 13.03 13.03 19.54 32.57 19.54 52.11 0 13.03-6.51 32.57-19.54 45.6l-13.03 13.03c-39.08 32.57-66.63 58.19-71.66 78.17-6.73 26.73-5.95 24.59-6.51 32.57-1.44 20.55 13.03 39.08 32.57 39.08 13.03 0 29.47-13.28 32.57-32.57 1.87-11.68-1.37-13.17 6.51-26.06 4.81-7.86 13.03-19.54 26.06-32.57 29.34-29.28 36.51-37.6 52.11-52.11 19.54-19.54 26.06-45.6 26.06-78.17.01-39.08-13.02-65.14-39.08-91.2zm-78.17 358.28c-6.51-6.51-19.54-13.03-32.57-13.03s-26.06 6.51-32.57 13.03c-6.51 6.51-13.03 19.54-13.03 32.57s6.51 26.06 13.03 32.57c6.51 6.51 19.54 13.03 32.57 13.03s19.54-6.51 32.57-13.03c6.51-6.51 13.03-19.54 13.03-32.57s-6.51-26.05-13.03-32.57z"/></svg>