<svg class="icon" viewBox="0 0 1024 1024" xmlns="http://www.w3.org/2000/svg" width="200" height="200"><defs><style/></defs><path d="M356.24 614.73L174.71 433.29v-.09l48.28-48.28a51.308 51.308 0 0 1 55.96-11.16l122.18 50.6h.09l235.8-181.8v-.09l-63.1-63.1v-.09l36.24-36.24c20.08-20.08 52.57-20.08 72.65 0l36.24 36.24.18-.18 145.12 145.21-.18.18 36.24 36.24c20.08 20.08 20.08 52.57 0 72.65l-36.24 36.24h-.09l-63.19-63.1h-.09L619 642.23v.09l50.6 122.27a51.308 51.308 0 0 1-11.16 55.96l-48.28 48.28h-.09L428.8 687.38h-.09L247.53 868.56h-72.65V796l181.26-181.26h.1z"/></svg>