<svg class="icon" viewBox="0 0 1024 1024" xmlns="http://www.w3.org/2000/svg" width="200" height="200"><defs><style/></defs><path d="M945.31 832.6h-30.6V404.17c0-67.32-55.08-122.41-122.41-122.41H608.68V802c0 17.14-13.46 30.6-30.6 30.6s-30.6-13.46-30.6-30.6V220.56c0-67.32-55.08-122.41-122.41-122.41H241.46c-67.32 0-122.41 55.08-122.41 122.41V832.6h-30.6c-17.14 0-30.6 13.46-30.6 30.6s13.46 30.6 30.6 30.6h856.86c17.14 0 30.6-13.46 30.6-30.6 0-17.13-13.47-30.6-30.6-30.6zM394.47 710.19H272.06c-17.14 0-30.6-13.46-30.6-30.6s13.46-30.6 30.6-30.6h122.41c17.14 0 30.6 13.46 30.6 30.6s-13.46 30.6-30.6 30.6zm0-183.61H272.06c-17.14 0-30.6-13.46-30.6-30.6s13.46-30.6 30.6-30.6h122.41c17.14 0 30.6 13.46 30.6 30.6s-13.46 30.6-30.6 30.6zm0-183.61H272.06c-17.14 0-30.6-13.46-30.6-30.6s13.46-30.6 30.6-30.6h122.41c17.14 0 30.6 13.46 30.6 30.6s-13.46 30.6-30.6 30.6zM822.9 710.19H700.49c-17.14 0-30.6-13.46-30.6-30.6s13.46-30.6 30.6-30.6H822.9c17.14 0 30.6 13.46 30.6 30.6s-13.47 30.6-30.6 30.6zm0-183.61H700.49c-17.14 0-30.6-13.46-30.6-30.6s13.46-30.6 30.6-30.6H822.9c17.14 0 30.6 13.46 30.6 30.6s-13.47 30.6-30.6 30.6z"/></svg>