<svg class="icon" viewBox="0 0 1024 1024" xmlns="http://www.w3.org/2000/svg" width="200" height="200"><defs><style/></defs><path d="M340.21 263.03l.01-.01c1.93-1.17 3.31-1.95 5.15-2.86 7.38-3.63 14.81-5.24 22.46-3.43 4.79 1.13 9.19 3.59 12.97 7.37 19.5 19.5 19.5 39.35-2 52.39C273.62 377.2 222.34 501 253.78 618.31S391.52 817.2 512.97 817.2s227.76-81.57 259.19-198.89C803.6 501 752.32 377.2 646.94 316.36c-21.3-12.98-21.3-32.77-1.8-52.27 11.84-11.84 26.33-9.47 39.54-1.73 128.69 77.12 190.15 230.59 150.28 375.22-39.87 144.63-171.29 244.92-321.31 245.21S231.82 783.3 191.39 638.83s20.44-298.18 148.82-375.8zm172.76-94.43c18.12 0 32.82 14.69 32.82 32.82v324.32c0 18.12-14.69 32.82-32.82 32.82-18.12 0-32.82-14.69-32.82-32.82V201.42c0-18.12 14.7-32.82 32.82-32.82z"/></svg>