<svg class="icon" viewBox="0 0 1024 1024" xmlns="http://www.w3.org/2000/svg" width="200" height="200"><defs><style/></defs><path d="M855.91 955.72v.6H165.87v-1.21c-49.19-7.75-86.81-51.7-86.81-104.81 0-32.69 14.28-61.86 36.61-81.38 1.81-1.81 3.72-3.52 5.73-5.13l5.03-3.12c2.21-1.51 4.53-2.92 6.94-4.22l288.49-175.02v-60.15l-3.92-.1c-78.76-43.45-99.38-141.33-100.19-227.93C316.14 127.38 405.36 62.6 513.39 62.6s197.35 67.49 195.64 230.85c-1.01 91.54-29.67 184.08-94.35 230.35v63.17l274.81 167.98c34 17.2 57.54 53.41 57.54 95.36-.09 54.61-39.92 99.67-91.12 105.41z"/></svg>